<svg width="24" height="24" viewBox="0 0 24 24" fill="none" xmlns="http://www.w3.org/2000/svg">
<path d="M11.9907 1.99889C9.78172 1.99889 7.99072 3.78989 7.99072 5.99889C6.50672 5.99889 4.11572 5.99889 3.99072 5.99889C3.43872 5.99889 2.99072 6.44689 2.99072 6.99889V17.9989C2.99072 20.2079 4.78172 21.9989 6.99072 21.9989H16.9907C19.1997 21.9989 20.9907 20.2079 20.9907 17.9989V6.99889C20.9907 6.44689 20.5427 5.99889 19.9907 5.99889C19.8657 5.99889 17.4747 5.99889 15.9907 5.99889C15.9907 3.78989 14.1997 1.99889 11.9907 1.99889ZM11.9907 3.99889C13.0957 3.99889 13.9907 4.89389 13.9907 5.99889C12.1667 5.99889 11.8147 5.99889 9.99072 5.99889C9.99072 4.89389 10.8857 3.99889 11.9907 3.99889ZM15.9907 10.9989C16.2467 10.9989 16.5137 11.0849 16.7097 11.2799C17.0997 11.6709 17.0997 12.3269 16.7097 12.7179L12.7097 16.7179C12.3187 17.1079 11.6627 17.1079 11.2717 16.7179L9.27173 14.7179C8.88173 14.3269 8.88173 13.6709 9.27173 13.2799C9.66273 12.8899 10.3187 12.8899 10.7097 13.2799L11.9907 14.5609L15.2717 11.2799C15.4677 11.0849 15.7347 10.9989 15.9907 10.9989Z" fill="#777E91"/>
</svg>
