<svg width="24" height="24" viewBox="0 0 24 24" fill="none" xmlns="http://www.w3.org/2000/svg">
<path fill-rule="evenodd" clip-rule="evenodd" d="M2 2.75C2 2.33579 2.33579 2 2.75 2H4.75C6.26878 2 7.5 3.23122 7.5 4.75H18C19.9528 4.75 21.5787 6.14935 21.9298 8H6V6.75V4.75C6 4.05964 5.44036 3.5 4.75 3.5H2.75C2.33579 3.5 2 3.16421 2 2.75ZM9.5 22.75C10.3284 22.75 11 22.0784 11 21.25C11 20.4216 10.3284 19.75 9.5 19.75C8.67157 19.75 8 20.4216 8 21.25C8 22.0784 8.67157 22.75 9.5 22.75ZM18.5 22.75C19.3284 22.75 20 22.0784 20 21.25C20 20.4216 19.3284 19.75 18.5 19.75C17.6716 19.75 17 20.4216 17 21.25C17 22.0784 17.6716 22.75 18.5 22.75ZM6 9.5H22V13.75C22 15.9591 20.2091 17.75 18 17.75H10C7.79086 17.75 6 15.9591 6 13.75V9.5Z" fill="#777E91"/>
</svg>
