<svg width="24" height="24" viewBox="0 0 24 24" fill="none" xmlns="http://www.w3.org/2000/svg">
<path d="M16.7315 5.09937C16.369 4.8544 15.9891 4.63906 15.5937 4.45388C15.2217 4.27981 15.0479 3.84861 15.1894 3.46396C15.35 3.02852 15.8497 2.82059 16.2699 3.01794C16.7389 3.23751 17.1899 3.49359 17.6202 3.78406C18.0049 4.04384 18.0823 4.57822 17.7903 4.93905C17.5322 5.25809 17.0717 5.33005 16.731 5.09989L16.7315 5.09937Z" fill="#777E91"/>
<path d="M20.3154 16.0144C19.9445 15.8382 19.7675 15.4081 19.9116 15.024C20.0637 14.6182 20.184 14.2018 20.2715 13.7774C20.3541 13.3759 20.7336 13.106 21.1416 13.1536C21.6032 13.2076 21.9222 13.6441 21.8289 14.0986C21.725 14.6033 21.5825 15.098 21.4013 15.58C21.238 16.0144 20.7351 16.2144 20.316 16.0149L20.3154 16.0144Z" fill="#777E91"/>
<path d="M21.2047 12.0738C20.794 12.0738 20.4479 11.7621 20.4135 11.3537C20.3753 10.9019 20.3006 10.4564 20.1909 10.0188C20.0913 9.62199 20.316 9.21512 20.7039 9.08126C21.1437 8.92995 21.6207 9.18549 21.7341 9.63575C21.8639 10.1532 21.9519 10.6807 21.9975 11.2145C22.0367 11.677 21.67 12.0732 21.2052 12.0732L21.2047 12.0738Z" fill="#777E91"/>
<path d="M19.271 7.78871C19.0389 7.39772 18.7755 7.0263 18.4825 6.6771C18.2191 6.36282 18.2445 5.89829 18.5354 5.60993C18.8651 5.28296 19.4056 5.30571 19.7039 5.66178C20.05 6.07447 20.3616 6.51361 20.6361 6.97551C20.8735 7.37497 20.7156 7.89188 20.2964 8.09347C19.927 8.27124 19.4798 8.14108 19.271 7.78871Z" fill="#777E91"/>
<path d="M19.5603 17.234C19.2227 16.9997 18.7606 17.0589 18.4978 17.3748C16.8444 19.3673 14.3792 20.4932 11.7184 20.4086C7.71904 20.2805 4.34393 17.3182 3.70166 13.3744C2.89829 8.43322 6.5124 3.98625 11.3649 3.61218C11.4142 3.60848 11.4635 3.60531 11.5128 3.60213C11.6548 3.59367 11.7979 3.5889 11.9394 3.58732C12.0819 3.58573 12.2261 3.58838 12.3686 3.5942C12.4078 3.59578 12.4476 3.59737 12.4863 3.59949V3.5979C12.5981 3.60213 12.7099 3.60901 12.8217 3.61748C12.8583 3.62065 12.8954 3.62065 12.9309 3.61853C13.2944 3.59684 13.6023 3.32436 13.6638 2.95612C13.7401 2.49899 13.4083 2.07201 12.9457 2.03498C12.7512 2.01963 12.5568 2.00958 12.3617 2.00588C12.216 2.00059 12.0692 1.999 11.9235 2.00059C11.7566 2.00217 11.5865 2.00799 11.4179 2.01805C5.90563 2.34661 1.68846 7.09252 2.01808 12.5961C2.34769 18.0996 7.10115 22.3101 12.6135 21.981C15.4067 21.8143 17.9519 20.5186 19.7182 18.3917C19.8528 18.2298 19.9116 18.0314 19.9 17.8383C19.8862 17.6049 19.7696 17.379 19.5603 17.2335V17.234Z" fill="#777E91"/>
<path d="M15.81 14.6779L12.8133 11.7473V6.82525C12.8133 6.38716 12.4572 6.03162 12.0184 6.03162C11.5796 6.03162 11.2235 6.38716 11.2235 6.82525V12.0738C11.2235 12.2727 11.2977 12.4547 11.4191 12.5939C11.4413 12.623 11.4652 12.651 11.4922 12.6775L14.6977 15.8123C14.8525 15.9636 15.0533 16.0388 15.2536 16.0388C15.4539 16.0388 15.6659 15.9594 15.8217 15.8007C16.1291 15.4875 16.1238 14.9848 15.81 14.6785V14.6779Z" fill="#777E91"/>
</svg>
