<svg width="24" height="24" viewBox="0 0 24 24" fill="none" xmlns="http://www.w3.org/2000/svg">
<path d="M12.0142 1.9989C6.49116 1.9989 2.01416 6.4759 2.01416 11.9989C2.01416 17.5219 6.49116 21.9989 12.0142 21.9989C17.5372 21.9989 22.0142 17.5219 22.0142 11.9989C22.0142 6.4759 17.5372 1.9989 12.0142 1.9989ZM15.7022 7.06091C16.4832 6.80091 17.2122 7.52991 16.9522 8.31091L14.9522 14.3109C14.8522 14.6099 14.6252 14.8369 14.3262 14.9369C13.5762 15.1869 9.07716 16.6859 8.32616 16.9369C7.54516 17.1969 6.81616 16.4679 7.07616 15.6869L9.07616 9.68689C9.17616 9.38789 9.40316 9.16091 9.70216 9.06091L15.7022 7.06091ZM12.0142 10.9989C11.4622 10.9989 11.0142 11.4469 11.0142 11.9989C11.0142 12.5509 11.4622 12.9989 12.0142 12.9989C12.5662 12.9989 13.0142 12.5509 13.0142 11.9989C13.0142 11.4469 12.5662 10.9989 12.0142 10.9989Z" fill="#777E91"/>
</svg>
