<svg width="24" height="24" viewBox="0 0 24 24" fill="none" xmlns="http://www.w3.org/2000/svg">
<path d="M15.6114 9.16436L19.0099 4.26441C19.3338 3.79724 19.3702 3.19163 19.1045 2.68437C18.8592 2.21559 18.3893 1.92428 17.8788 1.92428H5.60356V0.801782C5.60356 0.359198 5.24437 0 4.80178 0C4.3592 0 4 0.359198 4 0.801782V23.1982C4 23.6408 4.3592 24 4.80178 24C5.24437 24 5.60356 23.6408 5.60356 23.1982V16.1425H17.8441C18.361 16.1425 18.8335 15.8459 19.0772 15.3686C19.3408 14.8517 19.2948 14.2423 18.9575 13.7767L15.6114 9.16436ZM5.60356 14.539V3.52784H17.5694L13.6454 9.18521L17.5293 14.539H5.60356Z" fill="#777E91"/>
</svg>
