<svg width="24" height="24" viewBox="0 0 24 24" fill="none" xmlns="http://www.w3.org/2000/svg">
<path d="M11.9989 2.01417C6.4761 2.01417 1.9989 6.46218 1.9989 12.0142C1.9989 17.5662 6.4761 22.0142 11.9989 22.0142C16.7932 22.0142 21.9884 18.2072 21.9989 11.9522V10.0142H11.9989V14.0142H17.5927C16.7644 16.3362 14.6053 18.0142 11.9989 18.0142C8.6852 18.0142 5.9989 15.3282 5.9989 12.0142C5.9989 8.70019 8.6852 6.01418 11.9989 6.01418C13.4042 6.01418 14.7078 6.4852 15.7144 7.3052C16.042 6.9782 17.9989 5.0142 18.6327 4.50819C16.8692 2.92819 14.5633 2.01417 11.9989 2.01417Z" fill="#777E91"/>
</svg>
