<svg width="24" height="24" viewBox="0 0 24 24" fill="none" xmlns="http://www.w3.org/2000/svg">
<path d="M5.9989 3.99787L1.9989 11.9978C1.9989 11.9978 8.12991 11.9938 8.90491 11.9668C9.19291 13.9708 10.3739 14.9988 11.9989 14.9978C13.7109 14.9958 14.8309 13.7878 15.0609 11.9978C15.8529 11.9908 21.9989 11.9978 21.9989 11.9978L17.9989 3.99787H5.9989ZM1.9989 13.9978V15.9978C1.9989 18.2068 3.7899 19.9978 5.9989 19.9978H17.9989C20.2079 19.9978 21.9989 18.2068 21.9989 15.9978V13.9978C20.8699 13.9978 17.4989 13.9978 16.4989 13.9978C15.7099 15.7648 14.0069 16.9978 11.9989 16.9978C9.9889 16.9978 8.2869 15.7668 7.4989 13.9978C6.4779 14.0008 3.0809 13.9988 1.9989 13.9978Z" fill="#777E91"/>
</svg>
