<svg width="24" height="24" viewBox="0 0 24 24" fill="none" xmlns="http://www.w3.org/2000/svg">
<path d="M13.0941 1.95331C12.7964 1.92431 9.00029 5.94831 9.00029 5.94831C6.00028 8.94831 10.0003 9.94832 7.00028 12.9533L3.98878 15.9653L3.00388 16.9503C2.00028 17.9533 2.00028 19.9533 3.00028 20.9533C4.00028 21.9533 6.00028 21.9533 7.00028 20.9533C8.00028 19.9533 7.37888 18.5743 8.00028 17.9533C9.00029 16.9533 10.0003 17.9533 11.0003 16.9533C14.0007 13.9533 15.0003 17.9533 18.0003 14.9533C18.0003 14.9533 22.0294 11.1573 22.0003 10.8593C21.5381 6.11932 17.8343 2.41531 13.0941 1.95331ZM15.0003 7.95332C15.2563 7.95332 15.5238 8.03932 15.7191 8.23432C16.1096 8.62532 16.1096 9.28131 15.7191 9.67231C15.3286 10.0623 14.6721 10.0623 14.2816 9.67231C13.8911 9.28131 13.8911 8.62532 14.2816 8.23432C14.4769 8.03932 14.7444 7.95332 15.0003 7.95332Z" fill="#777E91"/>
</svg>
