<svg width="154" height="24" viewBox="0 0 154 24" fill="none" xmlns="http://www.w3.org/2000/svg">
<path d="M101.052 23.9999H92.2701V16.1625L87.9003 18.6386L83.5305 16.1625V23.9999H74.7436V0.487793L87.9003 7.86877L101.057 0.487793V23.9999H101.052Z" fill="white"/>
<path d="M128.624 23.9162V0.404053L145.91 10.0985V0.404053H153.831V23.9162L136.546 14.2637V23.9162H128.624Z" fill="white"/>
<path d="M24.1311 16.5876C24.1311 20.5483 18.6859 23.764 12.0446 23.764C11.5934 23.764 11.137 23.764 10.6859 23.722C10.6439 23.722 10.602 23.722 10.602 23.722L10.3554 23.6801C10.3554 23.6801 10.3134 23.6801 10.2715 23.6801C9.94098 23.6381 9.65246 23.5961 9.32197 23.5542C9.28 23.5542 9.23803 23.5542 9.19606 23.5542L8.99147 23.5122C8.94951 23.5122 8.90754 23.5122 8.86557 23.5122C8.53508 23.4702 8.24656 23.3863 7.95804 23.3076C7.91607 23.3076 7.91607 23.3076 7.8741 23.3076L7.71148 23.2656C7.66951 23.2656 7.66951 23.2656 7.62754 23.2656C7.25508 23.1817 6.8459 23.0611 6.47344 22.9352H6.43148C5.60787 22.6886 4.86295 22.3581 4.12328 21.9856L4.08131 21.9437C3.95541 21.9017 3.91869 21.8597 3.83476 21.8178L3.38361 21.5293C3.34164 21.4873 3.25771 21.4453 3.13705 21.3666H3.09508C1.1541 20.0447 0 18.3974 0 16.5824C0 16.3358 9.61491e-07 16.1312 0.0419682 15.8794H10.0249C10.0249 15.8794 10.0249 16.3306 10.0249 16.5824C10.0249 17.2433 10.9325 17.7784 12.0446 17.7784C13.1567 17.7784 14.1062 17.2433 14.1062 16.5824C14.1062 16.4565 14.0643 16.3358 14.0223 16.2099C13.8597 15.9634 13.5711 15.6748 13.3193 15.5909C13.1567 15.507 6.80393 13.7338 6.80393 13.7338C5.36131 13.3194 4.08131 12.7424 3.01115 12.0447C2.96918 12.0027 2.92721 11.9607 2.88525 11.9607C1.27475 10.8906 0 9.32204 0 7.29712C0 5.81253 0.744918 4.41187 2.06164 3.25253C4.57967 0.98105 8.78688 0.115479 12.0446 0.115479C12.4957 0.115479 12.9941 0.115479 13.4452 0.157447C13.4872 0.157447 13.5292 0.157447 13.5292 0.157447L13.7757 0.199415C13.7757 0.199415 13.8177 0.199415 13.8597 0.199415C14.1902 0.241382 14.5207 0.241384 14.8092 0.283351C14.9718 0.283351 15.0977 0.325312 15.2236 0.36728C15.5541 0.409247 15.8846 0.451221 16.1731 0.529909C16.2151 0.529909 16.2151 0.529902 16.2571 0.571869H16.4197C16.4616 0.613837 16.4616 0.613838 16.5036 0.613838C17.7416 0.902362 18.8957 1.31679 20.0079 1.89384L20.0498 1.93581C20.1757 1.97777 20.2544 2.01974 20.2964 2.06171L20.9574 2.47613C20.9993 2.47613 20.9993 2.47614 21.0413 2.5181C22.6938 3.6722 24.1364 5.11482 24.1364 7.30236C24.1364 7.54892 24.0944 7.75876 24.0525 8.00532H14.1062C14.1062 8.00532 14.1062 7.55416 14.1062 7.30236C14.1062 6.64138 13.1567 6.06433 12.0446 6.06433C10.9325 6.06433 10.0249 6.64138 10.0249 7.30236C10.0249 7.42826 10.0669 7.50695 10.1089 7.63286C10.2715 7.92138 10.5233 8.12597 10.8118 8.25187C10.9744 8.3358 17.2905 10.1089 17.2905 10.1089C18.7331 10.5233 20.0551 11.1424 21.1252 11.8401C21.1672 11.882 21.1672 11.924 21.2092 11.924C23.019 13.1673 24.1311 14.8145 24.1311 16.5876Z" fill="white"/>
<path d="M72.5928 23.6852H50.6492V0.173096H59.4361V15.8479H72.5928V23.6852Z" fill="white"/>
<path d="M37.1725 22.8198C30.9193 22.8198 25.8466 17.7522 25.8466 11.4939C25.8466 5.23551 30.9141 0.167969 37.1725 0.167969C43.4308 0.167969 48.4984 5.23551 48.4984 11.4939H37.1725V22.8198Z" fill="white"/>
<path d="M115.032 22.9875C121.38 22.9875 126.526 17.8416 126.526 11.4938C126.526 5.14594 121.38 0 115.032 0C108.684 0 103.538 5.14594 103.538 11.4938C103.538 17.8416 108.684 22.9875 115.032 22.9875Z" fill="#194BFB"/>
<path d="M117.194 14.8121C119.29 13.3915 119.983 10.7545 118.741 8.92221C117.499 7.08989 114.793 6.75609 112.697 8.17664C110.601 9.5972 109.908 12.2342 111.15 14.0665C112.392 15.8988 115.098 16.2326 117.194 14.8121Z" fill="white"/>
<path d="M119.482 9.67855C119.717 9.52944 119.668 9.03188 119.373 8.56723C119.078 8.10257 118.648 7.84677 118.414 7.99588C118.179 8.14499 118.228 8.64254 118.523 9.1072C118.818 9.57185 119.248 9.82765 119.482 9.67855Z" fill="white"/>
<path d="M118.473 7.95799C118.473 7.95799 117.98 8.04193 117.178 7.73242L119.302 10.5757C119.302 10.5757 119.176 9.95668 119.544 9.64193" fill="white"/>
<path d="M111.75 15.3566C111.965 15.18 111.85 14.6848 111.493 14.2506C111.136 13.8164 110.672 13.6076 110.458 13.7842C110.243 13.9608 110.358 14.456 110.715 14.8902C111.072 15.3244 111.535 15.5332 111.75 15.3566Z" fill="white"/>
<path d="M111.628 15.3914C111.628 15.3914 112.11 15.1659 112.934 15.4229L110.636 12.8262C110.636 12.8262 110.799 13.4347 110.452 13.7704" fill="white"/>
<path d="M115.494 8.05237C114.833 8.0786 114.303 8.43532 114.292 8.17827C114.282 7.92122 114.807 7.68516 115.468 7.65893C116.129 7.6327 116.674 7.82155 116.685 8.0786C116.7 8.3409 116.155 8.02614 115.494 8.05237Z" fill="white"/>
<path d="M114.025 8.49838C114.097 8.49838 114.156 8.43966 114.156 8.36723C114.156 8.2948 114.097 8.23608 114.025 8.23608C113.952 8.23608 113.894 8.2948 113.894 8.36723C113.894 8.43966 113.952 8.49838 114.025 8.49838Z" fill="white"/>
</svg>
