<svg width="24" height="24" viewBox="0 0 24 24" fill="none" xmlns="http://www.w3.org/2000/svg">
<path d="M5.68395 6.14014L18.9825 5.34192C19.3744 5.31832 19.7482 5.29581 20.0409 5.32097C20.3405 5.34673 20.819 5.44186 21.088 5.90777C21.357 6.37369 21.2002 6.83565 21.0726 7.10803C20.9481 7.3741 20.7417 7.68654 20.5253 8.01415L13.1848 19.1319C12.8896 19.579 12.6259 19.9785 12.3891 20.2495C12.1805 20.4883 11.7389 20.9299 11.1072 20.776C10.4755 20.622 10.2867 20.0266 10.2113 19.7187C10.1258 19.3691 10.0755 18.8931 10.0192 18.3603L9.51227 13.5673L14.3859 10.6431C14.7411 10.43 14.8563 9.96934 14.6432 9.61415C14.43 9.25897 13.9694 9.14379 13.6142 9.3569L8.83431 12.2248L4.7694 9.26738C4.33615 8.95224 3.94907 8.67068 3.6891 8.42184C3.46007 8.20261 3.0389 7.74139 3.22141 7.11733C3.40391 6.49328 4.00721 6.33166 4.31829 6.27038C4.67136 6.20082 5.14916 6.17219 5.68395 6.14014Z" fill="#777E91"/>
</svg>
