<svg width="24" height="24" viewBox="0 0 24 24" fill="none" xmlns="http://www.w3.org/2000/svg">
<path d="M16.9978 1.95316C15.3408 1.95316 13.9978 3.29616 13.9978 4.95316C13.9978 5.21016 14.0388 5.53017 14.0998 5.76817L8.74679 9.50416C8.26779 9.18016 7.6188 8.95316 6.9978 8.95316C5.3408 8.95316 3.9978 10.2962 3.9978 11.9532C3.9978 13.6102 5.3408 14.9532 6.9978 14.9532C7.6298 14.9532 8.2538 14.7182 8.7378 14.3852L14.1018 18.1512C14.0358 18.3982 13.9978 18.6852 13.9978 18.9532C13.9978 20.6102 15.3408 21.9532 16.9978 21.9532C18.6548 21.9532 19.9978 20.6102 19.9978 18.9532C19.9978 17.2962 18.6548 15.9532 16.9978 15.9532C16.3658 15.9532 15.7498 16.1812 15.2668 16.5152L9.8888 12.7522C9.9538 12.5052 9.9978 12.2212 9.9978 11.9532C9.9978 11.6852 9.95979 11.3962 9.89379 11.1492L15.2588 7.39716C15.7378 7.72016 16.3768 7.95316 16.9978 7.95316C18.6548 7.95316 19.9978 6.61016 19.9978 4.95316C19.9978 3.29616 18.6548 1.95316 16.9978 1.95316Z" fill="#777E91"/>
</svg>
