<svg width="24" height="24" viewBox="0 0 24 24" fill="none" xmlns="http://www.w3.org/2000/svg">
<path d="M17.7456 9.24635H15.8457C15.3632 9.24635 14.9715 9.63798 14.9715 10.1205C14.9715 10.6031 15.3632 10.9947 15.8457 10.9947H17.7456C18.6903 10.9947 19.4589 11.6894 19.4589 12.5431V19.7032C19.4589 20.557 18.6903 21.2517 17.7456 21.2517H5.96172C5.01703 21.2517 4.24834 20.557 4.24834 19.7032V12.5431C4.24834 11.6894 5.01703 10.9947 5.96172 10.9947H7.86159C8.34413 10.9947 8.73576 10.6031 8.73576 10.1205C8.73576 9.63798 8.34413 9.24635 7.86159 9.24635H5.96172C4.05311 9.24635 2.5 10.7255 2.5 12.5431V19.7032C2.5 21.5209 4.05311 23 5.96172 23H17.7461C19.6548 23 21.2079 21.5209 21.2079 19.7032V12.5431C21.2079 10.7255 19.6553 9.24635 17.7461 9.24635H17.7456Z" fill="#777E91"/>
<path d="M7.98746 6.27942C8.19843 6.27942 8.40998 6.20366 8.57782 6.0498L10.98 3.84922V14.5205C10.98 15.0031 11.3717 15.3947 11.8542 15.3947C12.3368 15.3947 12.7284 15.0031 12.7284 14.5205V3.8498L15.1306 6.05038C15.2985 6.20424 15.51 6.28 15.721 6.28C15.9576 6.28 16.1936 6.18442 16.3655 5.99619C16.6919 5.64011 16.6674 5.08705 16.3113 4.76127L12.4819 1.25351C12.4352 1.21097 12.3851 1.17425 12.3327 1.14336C12.1951 1.05303 12.0308 1 11.8536 1C11.6765 1 11.5121 1.05303 11.374 1.14336C11.3216 1.17425 11.2714 1.21038 11.2248 1.25293L7.39594 4.76011C7.03986 5.08646 7.01596 5.63894 7.34174 5.99502C7.51424 6.18326 7.74969 6.27883 7.98629 6.27883L7.98746 6.27942Z" fill="#777E91"/>
</svg>
