<svg width="12" height="12" viewBox="0 0 12 12" fill="none" xmlns="http://www.w3.org/2000/svg">
<path d="M8.18297 8.67193C10.1178 7.36072 10.7571 4.9267 9.61089 3.23541C8.4647 1.54412 5.96706 1.23601 4.03226 2.54722C2.09745 3.85844 1.45816 6.29245 2.60435 7.98374C3.75054 9.67503 6.24817 9.98315 8.18297 8.67193Z" fill="white"/>
<path d="M10.2953 3.93358C10.512 3.79595 10.4668 3.33669 10.1944 2.9078C9.92202 2.47891 9.52553 2.2428 9.30883 2.38043C9.09212 2.51806 9.13726 2.97732 9.40966 3.40621C9.68205 3.8351 10.0786 4.07121 10.2953 3.93358Z" fill="white"/>
<path d="M9.36398 2.34542C9.36398 2.34542 8.90881 2.42289 8.16797 2.13721L10.129 4.76164C10.129 4.76164 10.0128 4.19027 10.3518 3.89974" fill="white"/>
<path d="M3.15811 9.17471C3.35643 9.01169 3.25014 8.55465 2.9207 8.15387C2.59126 7.7531 2.16343 7.56036 1.96511 7.72338C1.76679 7.8864 1.87308 8.34345 2.20252 8.74422C2.53196 9.145 2.95979 9.33773 3.15811 9.17471Z" fill="white"/>
<path d="M3.04504 9.20667C3.04504 9.20667 3.49051 8.99846 4.25072 9.23573L2.12987 6.83887C2.12987 6.83887 2.27997 7.40056 1.96039 7.71045" fill="white"/>
<path d="M6.6137 2.43254C6.00359 2.45676 5.51453 2.78602 5.50484 2.54875C5.49516 2.31149 5.97938 2.0936 6.58949 2.06938C7.1996 2.04517 7.70317 2.21949 7.71285 2.45676C7.72738 2.69886 7.2238 2.40833 6.6137 2.43254Z" fill="white"/>
<path d="M5.25796 2.84416C5.32481 2.84416 5.37901 2.78996 5.37901 2.7231C5.37901 2.65625 5.32481 2.60205 5.25796 2.60205C5.1911 2.60205 5.1369 2.65625 5.1369 2.7231C5.1369 2.78996 5.1911 2.84416 5.25796 2.84416Z" fill="white"/>
</svg>
