<svg width="32" height="32" viewBox="0 0 32 32" fill="none" xmlns="http://www.w3.org/2000/svg">
<path fill-rule="evenodd" clip-rule="evenodd" d="M2.7967 17.8675C3.45074 22.5339 6.52015 26.4257 10.7005 28.2384C10.8834 24.4776 11.66 20.8641 12.9428 17.479C11.5753 17.2179 10.1594 17.0807 8.70847 17.0807C6.65486 17.0807 4.67136 17.3555 2.7967 17.8675ZM12.6749 28.9153C13.7379 29.1882 14.8522 29.3333 16.0003 29.3333C19.8273 29.3333 23.2777 27.7209 25.7093 25.1385C23.0552 21.7671 19.2859 19.2073 14.9053 17.9474C13.5721 21.3859 12.7952 25.0739 12.6749 28.9153ZM26.9946 23.5455C28.47 21.3998 29.3336 18.8007 29.3336 16C29.3336 15.7653 29.3275 15.5321 29.3156 15.3004C27.896 15.5575 26.431 15.692 24.9335 15.692C22.0015 15.692 19.1945 15.1765 16.61 14.2351C16.2844 14.8445 15.9771 15.464 15.6889 16.093C20.2157 17.4443 24.1451 20.0759 26.9946 23.5455ZM29.0628 13.3134C28.3698 9.92584 26.3921 7.00618 23.661 5.08567C21.3162 7.2792 19.281 9.762 17.6204 12.4717C19.8975 13.2605 22.3607 13.692 24.9335 13.692C26.3475 13.692 27.7281 13.5617 29.0628 13.3134ZM21.8725 4.02605C20.1008 3.15551 18.1076 2.66663 16.0003 2.66663C12.9129 2.66663 10.0706 3.71598 7.81056 5.47749C9.851 8.12291 12.5727 10.2805 15.7377 11.7196C17.4267 8.9048 19.4938 6.31983 21.8725 4.02605ZM6.32519 6.82547C4.09343 9.17822 2.71076 12.3443 2.66797 15.8331C4.5947 15.3422 6.61999 15.0807 8.70847 15.0807C10.4283 15.0807 12.1052 15.258 13.7193 15.5947C14.0407 14.8739 14.3856 14.1648 14.7529 13.4681C11.412 11.9196 8.52221 9.6315 6.32519 6.82547Z" fill="#E84C88"/>
</svg>
