<svg width="32" height="32" viewBox="0 0 32 32" fill="none" xmlns="http://www.w3.org/2000/svg">
<path d="M16.0189 2.66528C8.65488 2.66528 2.68555 8.6346 2.68555 15.9986C2.68555 22.4186 7.27889 27.8505 13.3536 29.0719L13.3522 19.9986H10.6855V15.9986H13.3522V11.9986C13.3669 9.81993 15.0869 8.02394 17.3522 7.9986H21.3522V11.9986C21.3522 11.9986 19.0802 11.9986 18.6855 11.9986C17.9935 11.9973 17.3522 12.5719 17.3522 13.3319V15.9986H21.3522L20.0189 19.9986H17.3522L17.3616 29.2812C24.0709 28.5852 29.3522 22.8919 29.3522 15.9986C29.3522 8.6346 23.3829 2.66528 16.0189 2.66528Z" fill="#1877F2"/>
</svg>
