<svg width="24" height="24" viewBox="0 0 24 24" fill="none" xmlns="http://www.w3.org/2000/svg">
<path fill-rule="evenodd" clip-rule="evenodd" d="M23.8373 7.0093C23.1037 8.32645 23.2467 9.71026 23.2467 9.71026L23.2461 9.70954C23.6068 13.7083 21.5569 18.0242 17.6116 20.6979C14.1878 23.0182 10.1442 23.5544 6.79504 22.4683L6.79538 22.4687C4.77629 21.8341 3.23185 21.8571 3.04189 21.8627C2.43039 21.9666 1.53745 21.4964 0.839102 20.6469C0.0495655 19.6864 -0.216082 18.5757 0.185141 18.0442C0.463858 16.6705 0.389344 15.6917 0.328545 15.2623C-0.487014 11.0092 1.563 6.20007 5.82775 3.30985C9.59872 0.754268 14.1215 0.362899 17.6404 1.9197C19.3833 2.66705 20.7591 2.71456 21.141 2.7115C21.1723 2.70909 21.2042 2.70836 21.2367 2.70925L21.2469 2.70872L21.2475 2.7096C21.8734 2.73362 22.7076 3.35684 23.3214 4.32331C23.9499 5.31284 24.1545 6.35848 23.882 6.92711L23.8832 6.92893L23.8688 6.95369C23.8588 6.97282 23.8483 6.99136 23.8373 7.0093Z" fill="#194BFB"/>
<path d="M11.8146 18.2168C8.38357 18.2168 5.60223 15.4355 5.60223 12.0044C5.60223 8.57333 8.38357 5.79199 11.8146 5.79199C15.2457 5.79199 18.0271 8.57333 18.0271 12.0044H11.8146V18.2168Z" fill="white"/>
</svg>
