<svg width="545" height="416" viewBox="0 0 545 416" fill="none" xmlns="http://www.w3.org/2000/svg">
<path d="M436.668 314.123C452.215 314.123 464.818 302.326 464.818 287.773C464.818 273.22 452.215 261.422 436.668 261.422C421.122 261.422 408.519 273.22 408.519 287.773C408.519 302.326 421.122 314.123 436.668 314.123Z" stroke="#231F20" stroke-miterlimit="10"/>
<path d="M408.496 287.772H464.818" stroke="#231F20" stroke-miterlimit="10"/>
<path d="M436.668 261.401V314.123" stroke="#231F20" stroke-miterlimit="10"/>
<path d="M436.668 314.123C436.668 314.123 446.051 302.468 446.051 287.773C446.051 273.078 436.668 261.422 436.668 261.422" stroke="#231F20" stroke-miterlimit="10"/>
<path d="M436.668 314.123C436.668 314.123 455.434 308.233 455.434 287.773C455.434 267.292 436.668 261.422 436.668 261.422" stroke="#231F20" stroke-miterlimit="10"/>
<path d="M436.668 314.123C436.668 314.123 427.285 302.468 427.285 287.773C427.285 273.078 436.668 261.422 436.668 261.422" stroke="#231F20" stroke-miterlimit="10"/>
<path d="M436.668 314.123C436.668 314.123 417.902 308.233 417.902 287.773C417.902 267.292 436.668 261.422 436.668 261.422" stroke="#231F20" stroke-miterlimit="10"/>
<path d="M411.475 299.575C414.475 298.359 422.537 295.801 436.668 295.801C450.799 295.801 458.839 298.38 461.862 299.575" stroke="#231F20" stroke-miterlimit="10"/>
<path d="M418.125 307.603C421.059 306.303 426.814 304.564 436.668 304.564C446.432 304.564 452.187 306.282 455.143 307.561" stroke="#231F20" stroke-miterlimit="10"/>
<path d="M411.475 275.971C414.475 277.187 422.537 279.744 436.668 279.744C450.799 279.744 458.839 277.166 461.862 275.971" stroke="#231F20" stroke-miterlimit="10"/>
<path d="M418.125 267.921C421.059 269.221 426.814 270.961 436.668 270.961C446.432 270.961 452.187 269.242 455.143 267.963" stroke="#231F20" stroke-miterlimit="10"/>
<rect x="0.528809" y="260.454" width="271" height="84.0799" rx="12" fill="#231F20"/>
<rect x="274" y="117.749" width="271" height="85.6227" rx="12" fill="#231F20"/>
<path d="M309.422 271.681C415.417 202.272 475.712 111.706 444.093 69.396C412.475 27.0857 300.917 49.053 194.921 118.461C88.9261 187.87 28.6319 278.436 60.2504 320.746C91.8689 363.056 203.427 341.089 309.422 271.681Z" stroke="#231F20" stroke-miterlimit="10"/>
<path d="M123.282 117.365H420.589V332.57C420.589 339.048 414.99 344.289 408.071 344.289H135.801C128.881 344.289 123.282 339.048 123.282 332.57V117.365Z" fill="white" stroke="#231F20" stroke-miterlimit="10"/>
<path d="M135.801 66.3833H408.071C414.99 66.3833 420.589 71.624 420.589 78.1016V117.386H123.282V78.1016C123.282 71.624 128.881 66.3833 135.801 66.3833Z" fill="#231F20" stroke="#231F20" stroke-miterlimit="10"/>
<path d="M156.896 99.9239C161.769 99.9239 165.72 96.3199 165.72 91.8741C165.72 87.4284 161.769 83.8244 156.896 83.8244C152.023 83.8244 148.073 87.4284 148.073 91.8741C148.073 96.3199 152.023 99.9239 156.896 99.9239Z" fill="white" stroke="white" stroke-miterlimit="10"/>
<path d="M187.42 99.9239C192.293 99.9239 196.243 96.3199 196.243 91.8741C196.243 87.4284 192.293 83.8244 187.42 83.8244C182.547 83.8244 178.596 87.4284 178.596 91.8741C178.596 96.3199 182.547 99.9239 187.42 99.9239Z" fill="white" stroke="white" stroke-miterlimit="10"/>
<path d="M217.943 99.9239C222.816 99.9239 226.766 96.3199 226.766 91.8741C226.766 87.4284 222.816 83.8244 217.943 83.8244C213.07 83.8244 209.12 87.4284 209.12 91.8741C209.12 96.3199 213.07 99.9239 217.943 99.9239Z" fill="white" stroke="white" stroke-miterlimit="10"/>
<path d="M24.4689 284.955C27.6823 284.955 30.2873 282.578 30.2873 279.647C30.2873 276.715 27.6823 274.338 24.4689 274.338C21.2554 274.338 18.6504 276.715 18.6504 279.647C18.6504 282.578 21.2554 284.955 24.4689 284.955Z" fill="white" stroke="white" stroke-miterlimit="10"/>
<path d="M44.5973 284.955C47.8107 284.955 50.4158 282.578 50.4158 279.647C50.4158 276.715 47.8107 274.338 44.5973 274.338C41.3838 274.338 38.7788 276.715 38.7788 279.647C38.7788 282.578 41.3838 284.955 44.5973 284.955Z" fill="white" stroke="white" stroke-miterlimit="10"/>
<path d="M64.7255 284.955C67.9389 284.955 70.5439 282.578 70.5439 279.647C70.5439 276.715 67.9389 274.338 64.7255 274.338C61.512 274.338 58.907 276.715 58.907 279.647C58.907 282.578 61.512 284.955 64.7255 284.955Z" fill="white" stroke="white" stroke-miterlimit="10"/>
<path d="M399.824 344.354H399.004V226.044H146.229V344.354H145.409V225.277H399.824V344.354Z" fill="#161616"/>
<path d="M399.414 304.406H145.819V305.173H399.414V304.406Z" fill="#161616"/>
<path d="M399.414 264.843H145.819V265.61H399.414V264.843Z" fill="#161616"/>
<path d="M357.556 225.66H356.736V344.353H357.556V225.66Z" fill="#161616"/>
<path d="M315.291 225.66H314.471V344.353H315.291V225.66Z" fill="#161616"/>
<path d="M273.026 225.66H272.206V344.353H273.026V225.66Z" fill="#161616"/>
<path d="M230.758 225.66H229.938V344.353H230.758V225.66Z" fill="#161616"/>
<path d="M188.494 225.66H187.674V344.353H188.494V225.66Z" fill="#161616"/>
<path d="M272.775 292.059C315.517 292.059 350.166 259.624 350.166 219.614C350.166 179.604 315.517 147.169 272.775 147.169C230.033 147.169 195.384 179.604 195.384 219.614C195.384 259.624 230.033 292.059 272.775 292.059Z" fill="white"/>
<path d="M272.75 292.726C252.228 292.726 232.883 285.35 218.18 271.901C203.259 258.251 194.913 239.979 194.674 220.448C194.435 200.921 202.336 182.475 216.918 168.508C231.5 154.541 251.02 146.729 271.884 146.505C272.19 146.502 272.497 146.502 272.8 146.502C293.322 146.502 312.667 153.877 327.37 167.327C342.291 180.977 350.637 199.249 350.876 218.78C351.115 238.307 343.214 256.752 328.632 270.719C314.05 284.686 294.53 292.499 273.666 292.723C273.36 292.726 273.053 292.726 272.75 292.726ZM272.786 147.833C272.486 147.833 272.194 147.833 271.894 147.837C251.415 148.057 232.252 155.73 217.934 169.44C203.619 183.15 195.861 201.262 196.097 220.432C196.332 239.602 204.525 257.54 219.175 270.943C233.607 284.146 252.603 291.388 272.746 291.388C273.046 291.388 273.345 291.388 273.648 291.384C294.127 291.164 313.291 283.495 327.609 269.782C341.923 256.072 349.681 237.96 349.446 218.79C348.968 179.495 314.66 147.833 272.786 147.833Z" fill="black"/>
<path d="M272.722 269.988C257.78 269.988 243.697 264.619 232.99 254.827C222.127 244.888 216.048 231.585 215.877 217.368L217.303 217.354C217.471 231.215 223.396 244.184 233.989 253.876C244.424 263.424 258.157 268.657 272.722 268.657C272.939 268.657 273.157 268.657 273.374 268.654C303.943 268.326 328.525 244.781 328.176 216.166L329.602 216.153C329.777 230.37 324.026 243.8 313.408 253.969C302.791 264.138 288.58 269.828 273.392 269.988C273.167 269.988 272.943 269.988 272.722 269.988Z" fill="#141416"/>
<path d="M250.566 214.304C255.4 214.252 259.225 206.532 259.109 197.061C258.994 187.59 254.982 179.954 250.149 180.005C245.315 180.057 241.49 187.777 241.606 197.248C241.721 206.719 245.733 214.355 250.566 214.304Z" fill="#141416"/>
<path d="M217.091 220.521C220.09 220.099 222.295 218.35 222.016 216.615C221.737 214.879 219.081 213.815 216.082 214.237C213.083 214.659 210.878 216.408 211.157 218.143C211.436 219.878 214.093 220.943 217.091 220.521Z" fill="#141416"/>
<path d="M334.337 216.599C334.5 214.851 332.183 213.234 329.162 212.987C326.141 212.741 323.56 213.958 323.397 215.706C323.235 217.454 325.551 219.071 328.572 219.317C331.593 219.564 334.174 218.347 334.337 216.599Z" fill="#141416"/>
<path d="M289.943 213.884C294.777 213.832 298.602 206.113 298.486 196.641C298.371 187.17 294.359 179.534 289.526 179.586C284.692 179.637 280.867 187.357 280.983 196.828C281.098 206.299 285.11 213.936 289.943 213.884Z" fill="#141416"/>
<path d="M187.432 291.429L191.582 301.065L202.365 304.774L191.582 308.481L187.432 318.117L183.28 308.483L172.502 304.774L183.283 301.065L187.432 291.429Z" fill="#020202"/>
<path d="M357.591 160.083L359.979 165.627L366.179 167.76L359.979 169.892L357.591 175.433L355.201 169.894L349.003 167.76L355.204 165.627L357.591 160.083Z" fill="#020202"/>
<path d="M357.492 268.014C359.164 268.014 360.519 266.745 360.519 265.181C360.519 263.616 359.164 262.347 357.492 262.347C355.821 262.347 354.466 263.616 354.466 265.181C354.466 266.745 355.821 268.014 357.492 268.014Z" fill="#020202"/>
<path d="M229.566 358.544H332.423L341.582 351.626L350.741 358.544H453.598C455.412 358.544 456.89 359.927 456.89 361.625V404.18C456.89 405.878 455.412 407.261 453.598 407.261H229.566C227.752 407.261 226.274 405.878 226.274 404.18V361.625C226.274 359.927 227.752 358.544 229.566 358.544Z" fill="white" stroke="#231F20" stroke-miterlimit="10"/>
<path d="M259.373 369.172L263.941 377.829L274.153 379.213L266.763 385.963L268.509 395.48L259.373 390.973L250.258 395.48L251.982 385.963L244.615 379.213L254.804 377.829L259.373 369.172Z" fill="#231F20" stroke="#231F20" stroke-miterlimit="10" stroke-linecap="round" stroke-linejoin="round"/>
<path d="M300.466 369.172L305.035 377.829L315.246 379.213L307.856 385.963L309.603 395.48L300.466 390.973L291.352 395.48L293.076 385.963L285.708 379.213L295.898 377.829L300.466 369.172Z" fill="#231F20" stroke="#231F20" stroke-miterlimit="10" stroke-linecap="round" stroke-linejoin="round"/>
<path d="M341.56 369.172L346.128 377.829L356.34 379.213L348.95 385.963L350.696 395.48L341.56 390.973L332.445 395.48L334.192 385.963L326.802 379.213L337.014 377.829L341.56 369.172Z" fill="#231F20" stroke="#231F20" stroke-miterlimit="10" stroke-linecap="round" stroke-linejoin="round"/>
<path d="M382.653 369.172L387.222 377.829L397.433 379.213L390.043 385.963L391.79 395.48L382.653 390.973L373.539 395.48L375.285 385.963L367.895 379.213L378.107 377.829L382.653 369.172Z" fill="#231F20" stroke="#231F20" stroke-miterlimit="10" stroke-linecap="round" stroke-linejoin="round"/>
<path d="M423.747 369.172L428.315 377.829L438.527 379.213L431.137 385.963L432.884 395.48L423.747 390.973L414.632 395.48L416.379 385.963L408.989 379.213L419.201 377.829L423.747 369.172Z" fill="#231F20" stroke="#231F20" stroke-miterlimit="10" stroke-linecap="round" stroke-linejoin="round"/>
<path d="M364.447 81.8116H335.043L325.884 88.7294L316.724 81.8116H287.321C285.507 81.8116 284.029 80.428 284.029 78.73V19.9499C284.029 18.2519 285.507 16.8684 287.321 16.8684H364.447C366.261 16.8684 367.739 18.2519 367.739 19.9499V78.73C367.739 80.449 366.261 81.8116 364.447 81.8116Z" fill="white" stroke="#231F20" stroke-miterlimit="10"/>
<path d="M347.024 36.5736C337.91 25.547 325.884 39.0681 325.884 39.0681C325.884 39.0681 313.858 25.568 304.744 36.5736C295.629 47.6001 325.884 68.7936 325.884 68.7936C325.884 68.7936 356.116 47.5791 347.024 36.5736Z" fill="#231F20"/>
<path d="M135.443 238.384H106.039L96.8799 245.302L87.7206 238.384H58.3393C56.5254 238.384 55.0474 237.001 55.0474 235.303V176.523C55.0474 174.825 56.5254 173.441 58.3393 173.441H135.465C137.279 173.441 138.757 174.825 138.757 176.523V235.303C138.735 237.001 137.257 238.384 135.443 238.384Z" fill="white" stroke="#231F20" stroke-miterlimit="10"/>
<path d="M118.02 193.125C108.906 182.099 96.8799 195.62 96.8799 195.62C96.8799 195.62 84.8542 182.12 75.7397 193.125C66.6253 204.152 96.8799 225.345 96.8799 225.345C96.8799 225.345 127.135 204.152 118.02 193.125Z" fill="#231F20"/>
<path d="M458.205 196.773H428.801L419.642 203.691L410.483 196.773H381.079C379.265 196.773 377.787 195.389 377.787 193.691V134.911C377.787 133.213 379.265 131.83 381.079 131.83H458.205C460.019 131.83 461.497 133.213 461.497 134.911V193.691C461.497 195.389 460.019 196.773 458.205 196.773Z" fill="white" stroke="#231F20" stroke-miterlimit="10"/>
<path d="M440.782 151.514C431.668 140.487 419.642 154.008 419.642 154.008C419.642 154.008 407.616 140.508 398.502 151.514C389.387 162.54 419.642 183.734 419.642 183.734C419.642 183.734 449.897 162.54 440.782 151.514Z" fill="#231F20"/>
<path d="M128.449 314.45L132.951 323.674L141.752 317.783L140.721 327.866L151.493 326.902L145.223 335.161L155.054 339.354L145.223 343.567L151.493 351.806L140.721 350.841L141.752 360.925L132.951 355.055L128.449 364.258L123.971 355.055L115.147 360.925L116.177 350.841L105.406 351.806L111.698 343.567L101.845 339.354L111.698 335.161L105.406 326.902L116.177 327.866L115.147 317.783L123.971 323.674L128.449 314.45Z" fill="#231F20" stroke="white" stroke-miterlimit="10" stroke-linecap="round" stroke-linejoin="round"/>
<path d="M159.046 0.391541L161.487 6.34502L167.847 8.62998L161.487 10.9149L159.046 16.8684L156.583 10.9359L150.245 8.62998L156.605 6.34502L159.046 0.391541Z" fill="#231F20"/>
<path d="M52.5837 99.9238L55.0246 105.877L61.3846 108.162L55.0246 110.447L52.5837 116.401L50.1203 110.468L43.7827 108.162L50.1427 105.877L52.5837 99.9238Z" fill="#231F20"/>
<path d="M105.681 399.023L108.122 404.977L114.482 407.262L108.122 409.547L105.681 415.5L103.24 409.547L96.8796 407.262L103.24 404.977L105.681 399.023Z" fill="#231F20"/>
<path d="M477.134 42.2756L479.575 48.229L485.935 50.514L479.575 52.799L477.134 58.7524L474.693 52.799L468.333 50.514L474.693 48.229L477.134 42.2756Z" fill="#231F20"/>
<path d="M381.187 261.333L353.786 254.458L326.373 247.583L333.717 273.245L341.061 298.894L354.5 281.791L368.029 294.454L376.444 286.577L362.916 273.913L381.187 261.333Z" fill="#231F20"/>
<path d="M3 295.937H128.615" stroke="#FFFEFE"/>
<path d="M418.973 140.119H544.588" stroke="#FFFEFE"/>
</svg>
