<svg width="73" height="49" viewBox="0 0 73 49" fill="none" xmlns="http://www.w3.org/2000/svg">
<path d="M24.1311 16.4721C24.1311 20.4328 18.6859 23.6485 12.0446 23.6485C11.5934 23.6485 11.137 23.6485 10.6859 23.6066C10.6439 23.6066 10.602 23.6066 10.602 23.6066L10.3554 23.5646C10.3554 23.5646 10.3134 23.5646 10.2715 23.5646C9.94098 23.5226 9.65246 23.4807 9.32197 23.4387C9.28 23.4387 9.23803 23.4387 9.19606 23.4387L8.99147 23.3967C8.94951 23.3967 8.90754 23.3967 8.86557 23.3967C8.53508 23.3548 8.24656 23.2708 7.95804 23.1921C7.91607 23.1921 7.91607 23.1921 7.8741 23.1921L7.71148 23.1502C7.66951 23.1502 7.66951 23.1502 7.62754 23.1502C7.25508 23.0662 6.8459 22.9456 6.47344 22.8197H6.43148C5.60787 22.5731 4.86295 22.2426 4.12328 21.8702L4.08131 21.8282C3.95541 21.7862 3.91869 21.7443 3.83476 21.7023L3.38361 21.4138C3.34164 21.3718 3.25771 21.3298 3.13705 21.2511H3.09508C1.1541 19.9292 0 18.282 0 16.4669C0 16.2203 9.61491e-07 16.0157 0.0419682 15.7639H10.0249C10.0249 15.7639 10.0249 16.2151 10.0249 16.4669C10.0249 17.1279 10.9325 17.6629 12.0446 17.6629C13.1567 17.6629 14.1062 17.1279 14.1062 16.4669C14.1062 16.341 14.0643 16.2203 14.0223 16.0944C13.8597 15.8479 13.5711 15.5593 13.3193 15.4754C13.1567 15.3915 6.80393 13.6184 6.80393 13.6184C5.36131 13.2039 4.08131 12.6269 3.01115 11.9292C2.96918 11.8872 2.92721 11.8452 2.88525 11.8452C1.27475 10.7751 0 9.20656 0 7.18164C0 5.69705 0.744918 4.29639 2.06164 3.13705C4.57967 0.865571 8.78688 0 12.0446 0C12.4957 0 12.9941 9.61491e-07 13.4452 0.0419682C13.4872 0.0419682 13.5292 0.0419682 13.5292 0.0419682L13.7757 0.0839363C13.7757 0.0839363 13.8177 0.0839363 13.8597 0.0839363C14.1902 0.125904 14.5207 0.125905 14.8092 0.167873C14.9718 0.167873 15.0977 0.209834 15.2236 0.251801C15.5541 0.293768 15.8846 0.335742 16.1731 0.414431C16.2151 0.414431 16.2151 0.414424 16.2571 0.456391H16.4197C16.4616 0.498358 16.4616 0.498359 16.5036 0.498359C17.7416 0.786884 18.8957 1.20131 20.0079 1.77836L20.0498 1.82033C20.1757 1.8623 20.2544 1.90427 20.2964 1.94623L20.9574 2.36066C20.9993 2.36066 20.9993 2.36066 21.0413 2.40262C22.6938 3.55672 24.1364 4.99934 24.1364 7.18688C24.1364 7.43344 24.0944 7.64328 24.0525 7.88984H14.1062C14.1062 7.88984 14.1062 7.43869 14.1062 7.18688C14.1062 6.5259 13.1567 5.94885 12.0446 5.94885C10.9325 5.94885 10.0249 6.5259 10.0249 7.18688C10.0249 7.31278 10.0669 7.39148 10.1089 7.51738C10.2715 7.8059 10.5233 8.01049 10.8118 8.13639C10.9744 8.22032 17.2905 9.99344 17.2905 9.99344C18.7331 10.4079 20.0551 11.0269 21.1252 11.7246C21.1672 11.7666 21.1672 11.8085 21.2092 11.8085C23.019 13.0518 24.1311 14.699 24.1311 16.4721Z" fill="white"/>
<path d="M72.5928 23.5698H50.6492V0.0576172H59.4361V15.7324H72.5928V23.5698Z" fill="white"/>
<path d="M37.1725 22.7043C30.9193 22.7043 25.8466 17.6368 25.8466 11.3784C25.8466 5.12003 30.9141 0.0524902 37.1725 0.0524902C43.4308 0.0524902 48.4984 5.12003 48.4984 11.3784H37.1725V22.7043Z" fill="white"/>
<path d="M24.2833 48.1526H16.1776V40.9185L12.1441 43.204L8.11057 40.9185V48.1526H0V26.4502L12.1441 33.2631L24.2881 26.4502V48.1526H24.2833Z" fill="white"/>
<path d="M49.7336 48.0755V26.373L65.6884 35.3213V26.373H73V48.0755L57.0452 39.166V48.0755H49.7336Z" fill="white"/>
<path d="M37.1875 47.2182C43.0468 47.2182 47.7967 42.4684 47.7967 36.6091C47.7967 30.7499 43.0468 26 37.1875 26C31.3283 26 26.5784 30.7499 26.5784 36.6091C26.5784 42.4684 31.3283 47.2182 37.1875 47.2182Z" fill="#194BFB"/>
<path d="M39.183 39.6719C41.1178 38.3607 41.7571 35.9267 40.6109 34.2354C39.4647 32.5441 36.9671 32.236 35.0323 33.5472C33.0975 34.8584 32.4582 37.2924 33.6043 38.9837C34.7505 40.675 37.2482 40.9831 39.183 39.6719Z" fill="white"/>
<path d="M41.2953 34.9336C41.512 34.796 41.4668 34.3367 41.1944 33.9078C40.922 33.4789 40.5255 33.2428 40.3088 33.3804C40.0921 33.5181 40.1373 33.9773 40.4097 34.4062C40.6821 34.8351 41.0786 35.0712 41.2953 34.9336Z" fill="white"/>
<path d="M40.364 33.3454C40.364 33.3454 39.9088 33.4229 39.168 33.1372L41.129 35.7616C41.129 35.7616 41.0128 35.1903 41.3518 34.8997" fill="white"/>
<path d="M34.1581 40.1747C34.3564 40.0117 34.2501 39.5546 33.9207 39.1539C33.5913 38.7531 33.1634 38.5604 32.9651 38.7234C32.7668 38.8864 32.8731 39.3434 33.2025 39.7442C33.532 40.145 33.9598 40.3377 34.1581 40.1747Z" fill="white"/>
<path d="M34.045 40.2067C34.045 40.2067 34.4905 39.9985 35.2507 40.2357L33.1299 37.8389C33.1299 37.8389 33.28 38.4006 32.9604 38.7105" fill="white"/>
<path d="M37.6137 33.4325C37.0036 33.4568 36.5145 33.786 36.5048 33.5488C36.4952 33.3115 36.9794 33.0936 37.5895 33.0694C38.1996 33.0452 38.7032 33.2195 38.7129 33.4568C38.7274 33.6989 38.2238 33.4083 37.6137 33.4325Z" fill="white"/>
<path d="M36.258 33.8442C36.3248 33.8442 36.379 33.79 36.379 33.7231C36.379 33.6562 36.3248 33.6021 36.258 33.6021C36.1911 33.6021 36.1369 33.6562 36.1369 33.7231C36.1369 33.79 36.1911 33.8442 36.258 33.8442Z" fill="white"/>
</svg>
