<svg width="154" height="24" viewBox="0 0 154 24" fill="none" xmlns="http://www.w3.org/2000/svg">
<path d="M101.099 24H92.3077V16.1604L87.9355 18.6342L83.5633 16.1604V24H74.7718V0.481201L87.9355 7.86582L101.099 0.481201V24Z" fill="black"/>
<path d="M128.682 23.9215V0.397461L145.972 10.0937V0.397461H153.895V23.9163L136.605 14.2619V23.9163H128.682V23.9215Z" fill="black"/>
<path d="M24.1464 16.5893C24.1464 20.5483 18.6969 23.77 12.0549 23.77C11.5999 23.77 11.1449 23.77 10.6951 23.7281C10.6533 23.7281 10.6115 23.7281 10.6115 23.7281L10.3657 23.6863C10.3657 23.6863 10.3238 23.6863 10.282 23.6863C9.95249 23.6444 9.66485 23.6026 9.33537 23.5608C9.29353 23.5608 9.25169 23.5608 9.20985 23.5608L9.00588 23.5189C8.96404 23.5189 8.9222 23.5189 8.88036 23.5189C8.55088 23.4771 8.26324 23.3934 7.97036 23.315C7.92852 23.315 7.92853 23.315 7.88669 23.315L7.71933 23.2731C7.67749 23.2731 7.67749 23.2731 7.63565 23.2731C7.26433 23.1894 6.85117 23.0691 6.47984 22.9436H6.438C5.61168 22.6978 4.86903 22.3631 4.12639 21.997L4.08455 21.9552C3.95903 21.9133 3.91719 21.8715 3.83874 21.8297L3.38374 21.542C3.34191 21.5002 3.25823 21.4583 3.13794 21.3747H3.0961C1.15581 20.0515 0 18.4041 0 16.5893C0 16.3435 -1.03649e-06 16.1343 0.0418381 15.8885H10.0309C10.0309 15.8885 10.0309 16.3435 10.0309 16.5893C10.0309 17.2483 10.9409 17.787 12.0549 17.787C13.1689 17.787 14.1207 17.2483 14.1207 16.5893C14.1207 16.4638 14.0789 16.3435 14.037 16.218C13.8697 15.9722 13.582 15.6793 13.3362 15.6009C13.1689 15.5172 6.81456 13.7442 6.81456 13.7442C5.3711 13.3311 4.08978 12.7558 3.01765 12.0498C2.97581 12.0079 2.93397 11.9661 2.89213 11.9661C1.28132 10.8939 0.00522902 9.32498 0.00522902 7.30101C0.00522902 5.81572 0.747874 4.41411 2.06581 3.2583C4.58139 0.988524 8.79146 0.120361 12.0549 0.120361C12.5099 0.120361 13.0015 0.120362 13.4565 0.162201C13.4984 0.162201 13.5402 0.162201 13.5402 0.162201L13.786 0.20404C13.786 0.20404 13.8278 0.20404 13.8697 0.20404C14.1992 0.245879 14.5287 0.245879 14.8163 0.287718C14.9837 0.287718 15.1039 0.329557 15.2295 0.371396C15.5589 0.413235 15.8884 0.455074 16.1761 0.538753C16.2179 0.538753 16.2179 0.538754 16.2597 0.580593H16.4271C16.4689 0.622432 16.4689 0.622431 16.5108 0.622431C17.7503 0.910075 18.9061 1.32324 20.02 1.90376L20.0619 1.9456C20.1874 1.98744 20.2659 2.02927 20.3077 2.07111L20.9667 2.48427C21.0085 2.48427 21.0085 2.48427 21.0503 2.52611C22.703 3.68192 24.1464 5.12537 24.1464 7.31147C24.1464 7.55727 24.1046 7.76647 24.0628 8.01228H14.1207C14.1207 8.01228 14.1207 7.55727 14.1207 7.31147C14.1207 6.6525 13.1741 6.07198 12.0549 6.07198C10.9357 6.07198 10.0309 6.6525 10.0309 7.31147C10.0309 7.43699 10.0728 7.51543 10.1146 7.64095C10.282 7.9286 10.5278 8.13779 10.8154 8.25808C10.9828 8.34176 17.2953 10.1147 17.2953 10.1147C18.7387 10.5279 20.0619 11.145 21.134 11.8458C21.1759 11.8876 21.1759 11.9295 21.2177 11.9295C23.0325 13.1637 24.1464 14.8164 24.1464 16.5893Z" fill="black"/>
<path d="M72.6276 23.6863H50.6725V0.16748H59.4639V15.8467H72.6276V23.6863Z" fill="black"/>
<path d="M37.195 22.8234C30.9401 22.8234 25.8671 17.7504 25.8671 11.4954C25.8671 5.24048 30.9401 0.16748 37.195 0.16748C43.45 0.16748 48.523 5.24048 48.523 11.4954H37.195V22.8234Z" fill="#231F20"/>
<path d="M115.084 22.9906C121.433 22.9906 126.579 17.844 126.579 11.4953C126.579 5.14663 121.433 0 115.084 0C108.735 0 103.589 5.14663 103.589 11.4953C103.589 17.844 108.735 22.9906 115.084 22.9906Z" fill="#194BFB"/>
<path d="M117.25 14.8166C119.347 13.3955 120.039 10.7568 118.796 8.92293C117.553 7.08903 114.846 6.75436 112.749 8.17544C110.652 9.59653 109.96 12.2352 111.202 14.0691C112.445 15.903 115.153 16.2377 117.25 14.8166Z" fill="white"/>
<path d="M119.537 9.6821C119.771 9.53344 119.721 9.03544 119.426 8.56976C119.13 8.10408 118.7 7.84708 118.466 7.99574C118.232 8.14439 118.282 8.6424 118.578 9.10807C118.874 9.57375 119.303 9.83075 119.537 9.6821Z" fill="white"/>
<path d="M118.525 7.95462C118.525 7.95462 118.034 8.0383 117.228 7.72974L119.357 10.5748C119.357 10.5748 119.231 9.95767 119.597 9.64388" fill="white"/>
<path d="M111.797 15.3518C112.011 15.1757 111.896 14.682 111.541 14.2492C111.185 13.8163 110.723 13.6081 110.509 13.7842C110.294 13.9603 110.409 14.4539 110.765 14.8868C111.121 15.3197 111.583 15.5279 111.797 15.3518Z" fill="white"/>
<path d="M111.674 15.3917C111.674 15.3917 112.155 15.1616 112.981 15.4231L110.686 12.8291C110.686 12.8291 110.848 13.4358 110.503 13.7757" fill="white"/>
<path d="M115.549 8.04896C114.89 8.07511 114.357 8.43598 114.346 8.17448C114.336 7.91299 114.864 7.68287 115.523 7.65672C116.182 7.63057 116.726 7.81885 116.737 8.08034C116.747 8.34184 116.208 8.02281 115.549 8.04896Z" fill="white"/>
<path d="M114.075 8.49343C114.147 8.49343 114.205 8.43489 114.205 8.36268C114.205 8.29047 114.147 8.23193 114.075 8.23193C114.002 8.23193 113.944 8.29047 113.944 8.36268C113.944 8.43489 114.002 8.49343 114.075 8.49343Z" fill="white"/>
</svg>
